<?xml version="1.0" encoding="UTF-8" standalone="no"?>
<!DOCTYPE svg PUBLIC "-//W3C//DTD SVG 1.1//EN" "http://www.w3.org/Graphics/SVG/1.1/DTD/svg11.dtd">
<svg width="100%" height="100%" viewBox="0 0 1099 305" version="1.1" xmlns="http://www.w3.org/2000/svg" xmlns:xlink="http://www.w3.org/1999/xlink" xml:space="preserve" xmlns:serif="http://www.serif.com/" style="fill-rule:evenodd;clip-rule:evenodd;stroke-linejoin:round;stroke-miterlimit:2;">
    <g transform="matrix(1,0,0,1,-3137,0)">
        <g id="Artboard1" transform="matrix(0.916591,0,0,1,2259.23,-501.555)">
            <rect x="957.645" y="501.555" width="1198.91" height="304.34" style="fill:none;"/>
            <g transform="matrix(1.60881,0,0,1.47462,-3868.15,216.976)">
                <g transform="matrix(0.837866,0,0,0.837866,2849.73,-1223.89)">
                    <g transform="matrix(278.6,0,0,278.6,459,1917)">
                        <rect x="0.067" y="-0.743" width="0.159" height="0.743" style="fill:rgb(99,114,137);fill-rule:nonzero;"/>
                    </g>
                    <g transform="matrix(278.6,0,0,278.6,540.63,1917)">
                        <path d="M0.069,-0L0.228,-0L0.228,-0.513L0.069,-0.513L0.069,-0ZM0.057,-0.666C0.057,-0.615 0.095,-0.578 0.148,-0.578C0.202,-0.578 0.24,-0.615 0.24,-0.666C0.24,-0.718 0.202,-0.755 0.148,-0.755C0.095,-0.755 0.057,-0.718 0.057,-0.666Z" style="fill:rgb(99,114,137);fill-rule:nonzero;"/>
                    </g>
                    <g transform="matrix(278.6,0,0,278.6,623.374,1917)">
                        <path d="M0.057,-0.743L0.057,-0.237C0.057,-0.088 0.173,0.02 0.334,0.02C0.501,0.02 0.622,-0.096 0.622,-0.256C0.622,-0.416 0.512,-0.533 0.362,-0.533C0.304,-0.533 0.253,-0.512 0.216,-0.477L0.216,-0.743L0.057,-0.743ZM0.463,-0.256C0.463,-0.177 0.41,-0.12 0.336,-0.12C0.263,-0.12 0.21,-0.177 0.21,-0.256C0.21,-0.336 0.263,-0.393 0.336,-0.393C0.41,-0.393 0.463,-0.336 0.463,-0.256Z" style="fill:rgb(99,114,137);fill-rule:nonzero;"/>
                    </g>
                    <g transform="matrix(278.6,0,0,278.6,806.972,1917)">
                        <path d="M0.057,-0.743L0.057,-0.237C0.057,-0.088 0.173,0.02 0.334,0.02C0.501,0.02 0.622,-0.096 0.622,-0.256C0.622,-0.416 0.512,-0.533 0.362,-0.533C0.304,-0.533 0.253,-0.512 0.216,-0.477L0.216,-0.743L0.057,-0.743ZM0.463,-0.256C0.463,-0.177 0.41,-0.12 0.336,-0.12C0.263,-0.12 0.21,-0.177 0.21,-0.256C0.21,-0.336 0.263,-0.393 0.336,-0.393C0.41,-0.393 0.463,-0.336 0.463,-0.256Z" style="fill:rgb(99,114,137);fill-rule:nonzero;"/>
                    </g>
                    <g transform="matrix(278.6,0,0,278.6,990.569,1917)">
                        <path d="M0.069,-0L0.228,-0L0.228,-0.513L0.069,-0.513L0.069,-0ZM0.057,-0.666C0.057,-0.615 0.095,-0.578 0.148,-0.578C0.202,-0.578 0.24,-0.615 0.24,-0.666C0.24,-0.718 0.202,-0.755 0.148,-0.755C0.095,-0.755 0.057,-0.718 0.057,-0.666Z" style="fill:rgb(99,114,137);fill-rule:nonzero;"/>
                    </g>
                </g>
                <g transform="matrix(1.28125,0,0,1.28125,-2.90632,-1118.54)">
                    <path d="M2589.44,1050.6C2589.44,1060.51 2596.82,1067.7 2607.12,1067.7C2617.61,1067.7 2625,1060.51 2625,1050.6C2625,1040.5 2617.61,1033.31 2607.12,1033.31C2596.82,1033.31 2589.44,1040.5 2589.44,1050.6Z" style="fill:rgb(26,187,151);fill-rule:nonzero;"/>
                </g>
                <g transform="matrix(1.28125,0,0,1.28125,373.667,-1118.54)">
                    <path d="M2589.44,1050.6C2589.44,1060.51 2596.82,1067.7 2607.12,1067.7C2617.61,1067.7 2625,1060.51 2625,1050.6C2625,1040.5 2617.61,1033.31 2607.12,1033.31C2596.82,1033.31 2589.44,1040.5 2589.44,1050.6Z" style="fill:rgb(142,215,33);fill-rule:nonzero;"/>
                </g>
            </g>
            <g transform="matrix(2.98857,0,0,2.42875,6130.43,-4090.09)">
                <g transform="matrix(0.646189,0,0,0.728814,-3523.67,-908.424)">
                    <circle cx="2845.41" cy="3926.41" r="64.408" style="fill:none;"/>
                </g>
                <g transform="matrix(0.528468,0,0,0.596041,-3196.93,-325.223)">
                    <circle cx="2859.83" cy="3785.83" r="17.833" style="fill:rgb(99,114,137);"/>
                </g>
                <g transform="matrix(0.646189,0,0,0.728814,-3523.67,-908.424)">
                    <path d="M2857.38,3989.7C2853.5,3990.43 2849.5,3990.82 2845.41,3990.82C2809.86,3990.82 2781,3961.95 2781,3926.41C2781,3922.34 2781.38,3918.36 2782.1,3914.5C2788.39,3912.19 2795.19,3910.93 2802.28,3910.93C2834.65,3910.93 2860.93,3937.21 2860.93,3969.58C2860.93,3976.65 2859.67,3983.43 2857.38,3989.7Z" style="fill:rgb(142,215,33);"/>
                </g>
                <g transform="matrix(0.646189,0,0,0.728814,-3523.67,-908.424)">
                    <path d="M2833.44,3989.7C2831.14,3983.43 2829.89,3976.65 2829.89,3969.58C2829.89,3937.21 2856.17,3910.93 2888.53,3910.93C2895.62,3910.93 2902.42,3912.19 2908.72,3914.5C2909.44,3918.36 2909.82,3922.34 2909.82,3926.41C2909.82,3961.95 2880.95,3990.82 2845.41,3990.82C2841.32,3990.82 2837.32,3990.43 2833.44,3989.7Z" style="fill:rgb(25,187,151);"/>
                </g>
                <g transform="matrix(0.646189,0,0,0.728814,-3523.67,-908.424)">
                    <path d="M2857.38,3989.7C2853.5,3990.43 2849.5,3990.82 2845.41,3990.82C2841.32,3990.82 2837.32,3990.43 2833.44,3989.7C2831.14,3983.43 2829.89,3976.65 2829.89,3969.58C2829.89,3954.26 2835.78,3940.3 2845.41,3929.85C2855.04,3940.3 2860.93,3954.26 2860.93,3969.58C2860.93,3976.65 2859.67,3983.43 2857.38,3989.7Z" style="fill:rgb(26,133,109);"/>
                </g>
            </g>
        </g>
    </g>
</svg>
