<?xml version="1.0" encoding="UTF-8" standalone="no"?>
<!DOCTYPE svg PUBLIC "-//W3C//DTD SVG 1.1//EN" "http://www.w3.org/Graphics/SVG/1.1/DTD/svg11.dtd">
<svg width="100%" height="100%" viewBox="0 0 278 278" version="1.1" xmlns="http://www.w3.org/2000/svg" xmlns:xlink="http://www.w3.org/1999/xlink" xml:space="preserve" xmlns:serif="http://www.serif.com/" style="fill-rule:evenodd;clip-rule:evenodd;stroke-linejoin:round;stroke-miterlimit:2;">
    <g transform="matrix(1,0,0,1,-3137,-689)">
        <g id="Artboard2" transform="matrix(1,0,0,1,0,331)">
            <rect x="3137" y="358" width="277.435" height="277.435" style="fill:none;"/>
            <g transform="matrix(2.83541,0,0,2.51396,8053.38,-4413.54)">
                <g transform="matrix(0.646189,0,0,0.728814,-3523.67,-908.424)">
                    <circle cx="2845.41" cy="3926.41" r="64.408" style="fill:none;"/>
                </g>
                <g transform="matrix(0.528468,0,0,0.596041,-3196.93,-325.223)">
                    <circle cx="2859.83" cy="3785.83" r="17.833" style="fill:rgb(250,250,250);"/>
                </g>
                <g transform="matrix(0.646189,0,0,0.728814,-3523.67,-908.424)">
                    <path d="M2857.38,3989.7C2853.5,3990.43 2849.5,3990.82 2845.41,3990.82C2809.86,3990.82 2781,3961.95 2781,3926.41C2781,3922.34 2781.38,3918.36 2782.1,3914.5C2788.39,3912.19 2795.19,3910.93 2802.28,3910.93C2834.65,3910.93 2860.93,3937.21 2860.93,3969.58C2860.93,3976.65 2859.67,3983.43 2857.38,3989.7Z" style="fill:rgb(142,215,33);"/>
                </g>
                <g transform="matrix(0.646189,0,0,0.728814,-3523.67,-908.424)">
                    <path d="M2833.44,3989.7C2831.14,3983.43 2829.89,3976.65 2829.89,3969.58C2829.89,3937.21 2856.17,3910.93 2888.53,3910.93C2895.62,3910.93 2902.42,3912.19 2908.72,3914.5C2909.44,3918.36 2909.82,3922.34 2909.82,3926.41C2909.82,3961.95 2880.95,3990.82 2845.41,3990.82C2841.32,3990.82 2837.32,3990.43 2833.44,3989.7Z" style="fill:rgb(25,187,151);"/>
                </g>
                <g transform="matrix(0.646189,0,0,0.728814,-3523.67,-908.424)">
                    <path d="M2857.38,3989.7C2853.5,3990.43 2849.5,3990.82 2845.41,3990.82C2841.32,3990.82 2837.32,3990.43 2833.44,3989.7C2831.14,3983.43 2829.89,3976.65 2829.89,3969.58C2829.89,3954.26 2835.78,3940.3 2845.41,3929.85C2855.04,3940.3 2860.93,3954.26 2860.93,3969.58C2860.93,3976.65 2859.67,3983.43 2857.38,3989.7Z" style="fill:rgb(26,133,109);"/>
                </g>
            </g>
        </g>
    </g>
</svg>
